<?xml version="1.0" encoding="UTF-8"?>
<svg xmlns="http://www.w3.org/2000/svg" xmlns:xlink="http://www.w3.org/1999/xlink" width="72px" height="72px" viewBox="0 0 72 72" version="1.1">
<g id="surface1">
<path style=" stroke:none;fill-rule:nonzero;fill:rgb(94.901961%,34.509804%,13.333333%);fill-opacity:1;" d="M 12.601562 26.4375 L 19.855469 26.4375 L 19.855469 45.617188 L 12.601562 45.617188 Z M 12.601562 26.4375 "/>
<path style=" stroke:none;fill-rule:nonzero;fill:rgb(94.901961%,34.509804%,13.333333%);fill-opacity:1;" d="M 24.300781 26.4375 L 31.554688 26.4375 L 31.554688 45.617188 L 24.300781 45.617188 Z M 24.300781 26.4375 "/>
<path style=" stroke:none;fill-rule:nonzero;fill:rgb(94.901961%,34.509804%,13.333333%);fill-opacity:1;" d="M 35.945312 26.4375 L 43.199219 26.4375 L 43.199219 45.617188 L 35.945312 45.617188 Z M 35.945312 26.4375 "/>
<path style=" stroke:none;fill-rule:nonzero;fill:rgb(94.901961%,34.509804%,13.333333%);fill-opacity:1;" d="M 54.898438 41.398438 C 54.898438 42.863281 54.5625 44.269531 53.832031 45.5625 L 47.644531 45.5625 L 47.644531 26.4375 L 54.5625 26.4375 C 53.101562 27.5625 52.707031 29.699219 52.820312 31.554688 C 52.988281 34.144531 54.113281 36.617188 54.617188 39.148438 C 54.789062 39.882812 54.898438 40.667969 54.898438 41.398438 Z M 54.898438 41.398438 "/>
<path style=" stroke:none;fill-rule:nonzero;fill:rgb(94.901961%,34.509804%,13.333333%);fill-opacity:1;" d="M 67.726562 28.351562 L 65.25 28.351562 L 65.25 23.792969 C 65.25 19.914062 62.101562 16.707031 58.164062 16.707031 L 9.28125 16.707031 C 5.398438 16.707031 2.195312 19.855469 2.195312 23.792969 L 2.195312 48.320312 C 2.195312 52.199219 5.34375 55.40625 9.28125 55.40625 L 58.164062 55.40625 C 62.042969 55.40625 65.25 52.257812 65.25 48.320312 L 65.25 43.761719 L 67.726562 43.761719 C 68.851562 43.761719 69.75 42.863281 69.75 41.738281 L 69.75 30.375 C 69.804688 29.25 68.851562 28.351562 67.726562 28.351562 Z M 60.132812 48.261719 C 60.132812 49.332031 59.230469 50.230469 58.164062 50.230469 L 9.28125 50.230469 C 8.210938 50.230469 7.3125 49.332031 7.3125 48.261719 L 7.3125 23.738281 C 7.3125 22.667969 8.210938 21.769531 9.28125 21.769531 L 58.164062 21.769531 C 59.230469 21.769531 60.132812 22.667969 60.132812 23.738281 Z M 60.132812 48.261719 "/>
</g>
</svg>
