<svg xmlns="http://www.w3.org/2000/svg" viewBox="0 0 100 100"><path style="marker:none" d="M68 8 47 29 34 16 16 34l13 13L8 68l13 14 21.688-21.313L49.5 67.5A27.496 27.496 0 0 1 56.406 56c3.144-3.144 6.888-5.413 10.875-6.719l-6.469-6.468L82 22 68 8zm3.438 8.438a2 2 0 0 1 .062 0 2 2 0 0 1 1.406 3.468l-13 13a2 2 0 1 1-2.812-2.843l13-13a2 2 0 0 1 1.156-.594 2 2 0 0 1 .188-.032zm4.093 35.53c-5.925 0-11.76 2.355-16.281 6.876-4.5 4.5-6.875 10.382-6.875 16.281 0 6.119 2.225 12.194 6.875 16.844L74.188 77l7 7-.594.594c-.731.74-.731 2.073 0 2.812l5.969 6c.741.75 2.102.75 2.843 0l4-4c.75-.741.75-2.102 0-2.844l-6-5.968A2.03 2.03 0 0 0 85.812 80c-.4.041-.787.207-1.093.469l-.719.719-6.969-7 15.344-15.344c-4.63-4.63-10.773-6.875-16.844-6.875zm-44.094 4.47a2 2 0 0 1 .063 0 2 2 0 0 1 1.406 3.468l-13 13a2 2 0 1 1-2.812-2.844l13-13a2 2 0 0 1 1.156-.593 2 2 0 0 1 .188-.032z" color="#000" enable-background="accumulate" overflow="visible" fill="#ffffff" class="color000000 svgShape"></path></svg>