<?xml version="1.0" encoding="UTF-8"?>
<svg xmlns="http://www.w3.org/2000/svg" xmlns:xlink="http://www.w3.org/1999/xlink" width="72px" height="72px" viewBox="0 0 72 72" version="1.1">
<g id="surface1">
<path style=" stroke:none;fill-rule:nonzero;fill:rgb(0%,0%,0%);fill-opacity:1;" d="M 11.25 36 C 11.25 22.332031 22.332031 11.25 36 11.25 C 44.339844 11.25 51.59375 15.378906 56.046875 21.734375 L 49.507812 21.714844 C 48.261719 21.710938 47.253906 22.714844 47.25 23.957031 C 47.246094 25.199219 48.25 26.210938 49.492188 26.214844 L 60.144531 26.242188 L 61.492188 26.25 C 62.089844 26.25 62.664062 26.015625 63.089844 25.59375 C 63.511719 25.171875 63.75 24.597656 63.75 24 L 63.75 12 C 63.75 10.757812 62.742188 9.75 61.5 9.75 C 60.257812 9.75 59.25 10.757812 59.25 12 L 59.25 18.484375 C 53.96875 11.375 45.601562 6.75 36 6.75 C 19.84375 6.75 6.75 19.84375 6.75 36 C 6.75 37.242188 7.757812 38.25 9 38.25 C 10.242188 38.25 11.25 37.242188 11.25 36 Z M 60.75 36 C 60.75 49.667969 49.667969 60.75 36 60.75 C 27.660156 60.75 20.40625 56.621094 15.953125 50.265625 L 22.492188 50.285156 C 23.738281 50.289062 24.746094 49.285156 24.75 48.042969 C 24.753906 46.800781 23.75 45.789062 22.507812 45.785156 L 11.855469 45.757812 L 10.507812 45.75 C 9.910156 45.75 9.335938 45.984375 8.910156 46.40625 C 8.488281 46.828125 8.25 47.402344 8.25 48 L 8.25 60 C 8.25 61.242188 9.257812 62.25 10.5 62.25 C 11.742188 62.25 12.75 61.242188 12.75 60 L 12.75 53.515625 C 18.03125 60.625 26.398438 65.25 36 65.25 C 52.15625 65.25 65.25 52.15625 65.25 36 C 65.25 34.757812 64.242188 33.75 63 33.75 C 61.757812 33.75 60.75 34.757812 60.75 36 Z M 60.75 36 "/>
</g>
</svg>
