<?xml version="1.0" encoding="UTF-8"?>
<svg xmlns="http://www.w3.org/2000/svg" xmlns:xlink="http://www.w3.org/1999/xlink" width="72px" height="72px" viewBox="0 0 72 72" version="1.1">
<g id="surface1">
<path style=" stroke:none;fill-rule:nonzero;fill:rgb(0%,0%,0%);fill-opacity:1;" d="M 36.015625 18.046875 C 31.835938 18.046875 28.433594 21.433594 28.433594 25.59375 L 28.433594 30.101562 C 26.132812 30.347656 24.328125 32.28125 24.328125 34.648438 L 24.328125 45.964844 C 24.328125 48.496094 26.386719 50.558594 28.921875 50.558594 L 43.078125 50.558594 C 45.613281 50.558594 47.671875 48.496094 47.671875 45.964844 L 47.671875 34.648438 C 47.671875 32.28125 45.867188 30.347656 43.566406 30.101562 L 43.566406 25.59375 C 43.566406 21.433594 40.179688 18.046875 36.015625 18.046875 Z M 36.015625 20.445312 C 38.855469 20.445312 41.167969 22.757812 41.167969 25.59375 L 41.167969 30.050781 L 30.832031 30.050781 L 30.832031 25.59375 C 30.832031 22.757812 33.160156 20.445312 36.015625 20.445312 Z M 45.273438 34.648438 L 45.273438 45.964844 C 45.273438 47.175781 44.289062 48.160156 43.078125 48.160156 L 28.921875 48.160156 C 27.710938 48.160156 26.726562 47.175781 26.726562 45.964844 L 26.726562 34.648438 C 26.726562 33.4375 27.710938 32.453125 28.921875 32.453125 C 31.71875 32.453125 43.324219 32.453125 43.078125 32.453125 C 44.289062 32.453125 45.273438 33.4375 45.273438 34.648438 Z M 45.273438 34.648438 "/>
<path style=" stroke:none;fill-rule:nonzero;fill:rgb(0%,0%,0%);fill-opacity:1;" d="M 8.125 36.136719 C 8.125 41.105469 9.457031 46.003906 11.980469 50.300781 C 12.316406 50.875 13.050781 51.0625 13.621094 50.730469 C 14.195312 50.394531 14.386719 49.660156 14.050781 49.089844 C 11.742188 45.15625 10.523438 40.679688 10.523438 36.136719 C 10.523438 22.078125 21.953125 10.640625 36 10.640625 C 39.578125 10.640625 43.082031 11.414062 46.300781 12.851562 L 43.804688 13.566406 C 43.167969 13.75 42.800781 14.414062 42.984375 15.050781 C 43.167969 15.703125 43.855469 16.054688 44.464844 15.871094 L 50.484375 14.148438 C 51.121094 13.96875 51.488281 13.304688 51.308594 12.671875 L 49.691406 6.878906 C 49.515625 6.238281 48.855469 5.863281 48.214844 6.046875 C 47.578125 6.222656 47.203125 6.882812 47.382812 7.523438 L 48.417969 11.238281 C 44.585938 9.308594 40.351562 8.238281 36 8.238281 C 20.628906 8.238281 8.125 20.753906 8.125 36.136719 Z M 36 61.609375 C 32.339844 61.609375 28.746094 60.78125 25.433594 59.257812 L 28.457031 58.066406 C 29.074219 57.820312 29.375 57.125 29.132812 56.507812 C 28.890625 55.890625 28.195312 55.585938 27.574219 55.832031 C 27.332031 55.925781 21.988281 57.957031 21.75 58.136719 L 21.746094 58.136719 C 21.113281 58.386719 20.828125 59.097656 21.070312 59.703125 L 23.316406 65.25 C 23.5625 65.855469 24.253906 66.164062 24.878906 65.914062 C 25.496094 65.664062 25.792969 64.964844 25.542969 64.351562 L 24.34375 61.390625 C 27.992188 63.082031 31.960938 64.011719 36 64.011719 C 51.371094 64.011719 63.875 51.507812 63.875 36.136719 C 63.875 31.125 62.542969 26.226562 60.015625 21.964844 C 59.679688 21.394531 58.941406 21.207031 58.371094 21.546875 C 57.804688 21.882812 57.613281 22.621094 57.953125 23.191406 C 60.257812 27.078125 61.476562 31.554688 61.476562 36.136719 C 61.476562 50.183594 50.046875 61.609375 36 61.609375 Z M 36 61.609375 "/>
<path style=" stroke:none;fill-rule:nonzero;fill:rgb(0%,0%,0%);fill-opacity:1;" d="M 36.011719 34.726562 C 33.855469 34.726562 32.101562 36.480469 32.101562 38.636719 C 32.101562 40.359375 33.246094 41.808594 34.8125 42.316406 L 34.8125 44.683594 C 34.8125 45.347656 35.347656 45.882812 36.011719 45.882812 C 36.675781 45.882812 37.214844 45.347656 37.214844 44.683594 L 37.214844 42.3125 C 38.765625 41.804688 39.898438 40.359375 39.898438 38.636719 C 39.898438 36.480469 38.15625 34.726562 36.011719 34.726562 Z M 36.011719 40.125 C 35.179688 40.125 34.503906 39.457031 34.503906 38.636719 C 34.503906 37.820312 35.195312 37.128906 36.011719 37.128906 C 36.832031 37.128906 37.496094 37.804688 37.496094 38.636719 C 37.496094 39.457031 36.832031 40.125 36.011719 40.125 Z M 36.011719 40.125 "/>
</g>
</svg>
