<svg xmlns="http://www.w3.org/2000/svg" enable-background="new 0 0 64 64" viewBox="0 0 64 64"><path fill="#d4dedd" d="M10.177,37.364v20.9c0,2.063,1.645,3.736,3.673,3.736l0,0c2.029,0,3.673-1.673,3.673-3.736v-20.9H10.177z"/><path fill="#173851" d="M13.85 63c-2.577 0-4.673-2.124-4.673-4.735v-20.9c0-.553.448-1 1-1h7.347c.552 0 1 .447 1 1v20.9C18.523 60.876 16.427 63 13.85 63zM11.177 38.364v19.9c0 1.508 1.199 2.735 2.673 2.735s2.673-1.228 2.673-2.735v-19.9H11.177zM49.596 42.732c-.257 0-.513-.098-.708-.294-.391-.392-.389-1.024.002-1.414 2.437-2.428 3.949-7.008 3.949-11.953 0-4.943-1.512-9.522-3.946-11.95-.392-.39-.392-1.023-.002-1.414.391-.393 1.023-.391 1.414-.002 2.839 2.831 4.534 7.828 4.534 13.366 0 5.54-1.696 10.538-4.537 13.369C50.106 42.635 49.851 42.732 49.596 42.732z"/><path fill="#173851" d="M48.743,57.217c-0.409,0-0.793-0.253-0.94-0.66c-0.188-0.52,0.081-1.093,0.601-1.28
						C55.413,52.744,60.5,41.745,60.5,29.122c0-12.685-5.116-23.694-12.165-26.179c-0.521-0.184-0.795-0.755-0.611-1.275
						c0.185-0.521,0.759-0.79,1.275-0.611C56.822,3.813,62.5,15.617,62.5,29.122c0,13.653-5.518,25.182-13.417,28.035
						C48.971,57.198,48.856,57.217,48.743,57.217z"/><path fill="#45c9a5" d="M36.984,52.83h-0.841V5.27h0.841c3.314,0,6,2.686,6,6v35.56C42.984,50.144,40.297,52.83,36.984,52.83z"/><path fill="#173851" d="M36.983,53.83h-0.841c-0.553,0-1-0.447-1-1V5.27c0-0.553,0.447-1,1-1h0.841c3.859,0,7,3.141,7,7v35.56
				C43.983,50.689,40.843,53.83,36.983,53.83z M37.143,6.272v45.555c2.684-0.084,4.841-2.293,4.841-4.997V11.27
				C41.983,8.565,39.826,6.356,37.143,6.272z"/><g><path fill="#fff" d="M9.354,20.066c-3.785,0-6.854,4.032-6.854,9.005s3.068,9.005,6.854,9.005h3.343v-18.01H9.354z"/><path fill="#173851" d="M12.697,39.076H9.354c-4.331,0-7.854-4.488-7.854-10.005c0-5.518,3.523-10.006,7.854-10.006h3.343
					c0.552,0,1,0.447,1,1v18.011C13.697,38.629,13.249,39.076,12.697,39.076z M9.354,21.065c-3.228,0-5.854,3.592-5.854,8.006
					s2.626,8.005,5.854,8.005h2.343V21.065H9.354z"/><path fill="#fff" d="M34.802,6.967c-4.334,6.022-9.227,10.525-15.222,13.099v18.011c5.835,2.434,10.076,6.757,14.306,12.571
					l2.254,2.182l0.003-47.56L34.802,6.967z"/><path fill="#173851" d="M36.141,53.83c-0.255,0-0.505-0.098-0.695-0.281l-2.254-2.182c-0.042-0.04-0.079-0.084-0.113-0.131
					c-4.721-6.486-8.873-10.146-13.883-12.237c-0.372-0.155-0.615-0.52-0.615-0.923V20.065c0-0.399,0.238-0.761,0.605-0.919
					c5.473-2.35,10.315-6.524,14.806-12.764C34,6.371,34.009,6.358,34.018,6.348l1.34-1.697c0.265-0.334,0.711-0.469,1.113-0.325
					c0.402,0.14,0.672,0.519,0.672,0.944l-0.002,47.56c0,0.401-0.24,0.764-0.609,0.921C36.405,53.804,36.272,53.83,36.141,53.83z
					 M34.645,49.99l0.496,0.48l0.002-42.273c-4.413,5.964-9.188,10.068-14.563,12.52v16.702
					C25.66,39.688,29.903,43.489,34.645,49.99z"/><rect width="6.883" height="18.011" x="12.697" y="20.066" fill="#f8bc5c"/><path fill="#173851" d="M19.58,39.076h-6.883c-0.552,0-1-0.447-1-1V20.065c0-0.553,0.448-1,1-1h6.883c0.552,0,1,0.447,1,1v18.011
					C20.58,38.629,20.132,39.076,19.58,39.076z M13.697,37.076h4.883V21.065h-4.883C13.697,21.065,13.697,37.076,13.697,37.076z"/></g></svg>