<svg xmlns="http://www.w3.org/2000/svg" data-name="solid copy" viewBox="0 0 48 48"><path d="M22.842.484h2.317v8.804h-2.317zM26.837 10.788h-5.674l-1.487 1.476h8.648l-1.487-1.476zM36.92 13.764H11.08A8.08 8.08 0 0 0 3 21.844v22.344a3.062 3.062 0 0 0 3.062 3.062h35.876A3.062 3.062 0 0 0 45 44.188V21.844a8.08 8.08 0 0 0-8.08-8.08ZM11.927 44.291c-.411.411-1.346.144-2.087-.6s-1.009-1.676-.6-2.087 1.347-.144 2.088.6 1.011 1.675.599 2.087Zm0-4.734c-.411.411-1.346.144-2.087-.6s-1.009-1.676-.6-2.087 1.347-.144 2.088.6 1.011 1.675.599 2.087Zm0-4.734c-.411.411-1.346.144-2.087-.6s-1.009-1.676-.6-2.087 1.347-.145 2.088.6 1.011 1.675.599 2.087ZM6.578 22.908a6.428 6.428 0 1 1 6.427 6.427 6.428 6.428 0 0 1-6.427-6.427Zm26.437 21.655h-18.03V32.746h18.03Zm5.145-.87c-.741.742-1.676 1.009-2.087.6s-.144-1.347.6-2.088 1.676-1.009 2.088-.6.139 1.347-.601 2.088Zm0-4.734c-.741.742-1.676 1.009-2.087.6s-.144-1.347.6-2.088 1.676-1.009 2.088-.6.139 1.347-.601 2.088Zm0-4.734c-.741.742-1.676 1.009-2.087.6s-.144-1.347.6-2.088 1.676-1.009 2.088-.6.139 1.347-.601 2.088Zm-3.165-4.89a6.428 6.428 0 1 1 6.427-6.427 6.428 6.428 0 0 1-6.427 6.427Z" fill="#ffffff" class="color000000 svgShape"></path><path d="M13.565 18.3a.771.771 0 0 0-1.1 0l-.7.769a.75.75 0 1 0 1.1 1.014l.153-.166.152.166a.75.75 0 0 0 1.106-1.014zm-3.339 3.39a.753.753 0 0 0-1.06-.045l-.77.705a.75.75 0 0 0 0 1.1l.77.706a.75.75 0 1 0 1.014-1.105l-.167-.154.167-.152a.751.751 0 0 0 .046-1.055zm2.923 4.046L13 25.9l-.151-.165a.75.75 0 1 0-1.108 1.012l.705.771a.751.751 0 0 0 1.108 0l.705-.771a.75.75 0 0 0-1.108-1.012zm4.708-2.824a.747.747 0 0 0-.243-.553l-.769-.705a.75.75 0 1 0-1.014 1.106l.166.152-.166.152a.75.75 0 0 0 1.014 1.106l.769-.705a.747.747 0 0 0 .243-.553z" fill="#ffffff" class="color000000 svgShape"></path><circle cx="13.012" cy="22.903" r="1.229" fill="#ffffff" class="color000000 svgShape"></circle><path d="M35.555 18.3a.772.772 0 0 0-1.106 0l-.7.769a.75.75 0 1 0 1.106 1.014l.145-.17.152.166a.75.75 0 1 0 1.106-1.014zm-3.34 3.39a.753.753 0 0 0-1.06-.045l-.769.705a.75.75 0 0 0 0 1.1l.769.706a.75.75 0 1 0 1.014-1.105L32 22.9l.167-.152a.75.75 0 0 0 .048-1.058zm2.924 4.046-.152.165-.151-.165a.75.75 0 1 0-1.107 1.012l.7.771a.75.75 0 0 0 1.107 0l.705-.771a.75.75 0 1 0-1.107-1.012zm2.635-4.036a.751.751 0 0 0 .046 1.06l.166.152-.166.152a.75.75 0 0 0 1.014 1.106l.77-.705a.751.751 0 0 0 0-1.106l-.77-.705a.752.752 0 0 0-1.06.046z" fill="#ffffff" class="color000000 svgShape"></path><circle cx="35.001" cy="22.903" r="1.229" fill="#ffffff" class="color000000 svgShape"></circle><path d="M21.057 37.944a.75.75 0 0 0 .75-.75V36.7h.659a.75.75 0 0 0 0-1.5h-1.409a.75.75 0 0 0-.75.75v1.241a.75.75 0 0 0 .75.753zm4.559-1.244h.491v.491a.75.75 0 0 0 1.5 0v-1.238a.75.75 0 0 0-.75-.75h-1.241a.75.75 0 0 0 0 1.5zm-4.559 5.405h1.409a.75.75 0 0 0 0-1.5h-.659v-.491a.75.75 0 0 0-1.5 0v1.241a.75.75 0 0 0 .75.75zm4.559 0h1.241a.75.75 0 0 0 .75-.75v-1.241a.75.75 0 0 0-1.5 0v.486h-.491a.75.75 0 0 0 0 1.5z" fill="#ffffff" class="color000000 svgShape"></path></svg>