<svg xmlns="http://www.w3.org/2000/svg" width="261" height="261" fill-rule="evenodd" clip-rule="evenodd" image-rendering="optimizeQuality" shape-rendering="geometricPrecision" text-rendering="geometricPrecision" viewBox="0 0 30.357 30.404"><polygon fill="none" points=".277 0 30.078 0 30.078 29.801 .277 29.801"/><path fill="none" stroke="#00305d" stroke-linecap="round" stroke-linejoin="round" stroke-miterlimit="2.613" stroke-width=".698" d="M8.927 19.52c-1.42,0.263 -2.808,0.621 -4.091,1.098 -1.315,0.49 -3.349,1.457 -4.147,2.886 -0.215,0.387 -0.342,0.813 -0.34,1.258 0.001,0.033 0.003,0.058 0.004,0.091 0.021,0.43 0.16,0.844 0.386,1.21 0.854,1.399 2.929,2.281 4.269,2.715 3.181,1.032 6.959,1.338 10.286,1.267 3.327,-0.071 7.091,-0.537 10.225,-1.703 1.315,-0.49 3.349,-1.457 4.147,-2.886 0.215,-0.382 0.343,-0.818 0.34,-1.258 0,-0.01 0.002,-0.019 0.002,-0.029 0,-0.406 -0.157,-0.875 -0.362,-1.225 -0.009,-0.016 -0.02,-0.031 -0.029,-0.047 -0.855,-1.399 -2.93,-2.281 -4.269,-2.715 -1.334,-0.433 -2.773,-0.737 -4.24,-0.94"/><path fill="none" stroke="#00305d" stroke-linecap="round" stroke-linejoin="round" stroke-miterlimit="2.613" stroke-width=".466" d="M4.134 6.597c-.969 0-1.754.785-1.754 1.754l0 .555.005 0c-.002.018-.005.035-.005.054l0 .353 0 .175 0 .834c0 0 .001-.001.001-.001 0 .005-.001.008-.001.013l0 .625c0 .465.377.842.842.842l1.824 0c.465 0 .842-.377.842-.842l0-.569 0-.056 0-1.428 0-.383 0-.172c0-.969-.786-1.754-1.754-1.754zM3.432 3.734l0 2.871m1.433.007l0-2.878M27.946 8.906l0-.555c0-.969-.786-1.754-1.754-1.754-.969 0-1.754.785-1.754 1.754l0 .172 0 .383 0 1.428 0 .196 0 .429c0 .465.377.842.842.842l1.824 0c.465 0 .842-.377.842-.842l0-.625c0-.005-.002-.008-.002-.012.001 0 .002 0 .002 0l0-.834 0-.175 0-.353c0-.019-.003-.036-.005-.054l.005 0zM26.941 6.654l-.023-2.941m-1.433 0l.023 2.933M26.927 2.417l-.004-.839c0-.395-.321-.716-.716-.716-.396 0-.717.321-.717.716l.005.839M29.634 2.517l-.026-.005c-.033-.006-.066-.009-.099-.009l-6.573 0c-.03 0-.06.003-.09.008l-.058.009c-.603.102-.604.968-.002 1.071.031.006.062.008.093.008l6.629 0c.034 0 .067-.003.1-.009l.026-.005c.592-.109.592-.958 0-1.068z"/><path fill="none" stroke="#0f97ff" stroke-linecap="round" stroke-linejoin="round" stroke-miterlimit="2.613" stroke-width=".466" d="M15.352 10.43l0 0c-0.519,0 -0.94,-0.421 -0.94,-0.94 0,-0.096 0.014,-0.189 0.041,-0.277 0.074,0.163 0.238,0.277 0.429,0.277 0.26,0 0.47,-0.211 0.47,-0.47 0,-0.191 -0.113,-0.355 -0.277,-0.429 0.088,-0.027 0.181,-0.041 0.277,-0.041 0.52,0 0.941,0.421 0.941,0.94 0,0.519 -0.421,0.94 -0.941,0.94z"/><path fill="none" stroke="#00305d" stroke-linecap="round" stroke-linejoin="round" stroke-miterlimit="2.613" stroke-width=".466" d="M5.91 10.251c1.543.15 3.365.686 4.359.961l-3.043 3.068c-.52.524-.519 1.369.001 1.892l1.053 1.058c.1.101.27.072.331-.057l.312-.657c.037-.079.021-.173-.041-.234l-.696-.696c-.164-.165-.164-.432 0-.596l3.383-3.383c.922.306 1.614.591 1.997.76.3.132.618.213.943.246.535.055 1.073.048 1.606-.021.268-.034.526-.113.777-.213.38-.152 1.06-.407 1.98-.686l3.354 3.354c.153.153.153.402 0 .555l-.68.678c-.09.089-.108.226-.047.338.084.157.161.317.233.481.079.182.321.223.462.082l.942-.937c.539-.536.542-1.408.007-1.949l-2.947-2.973c.951-.244 2.768-.63 4.206-.788m-.065-2.043l-2.757.032c-.628 0-1.251-.272-1.602-.794-.671-.997-2.573-1.716-4.815-1.716-2.242 0-4.144.719-4.815 1.716-.351.522-.974.794-1.602.794l-2.858 0m9.464 3.446l0 0c-1.369 0-2.479-1.11-2.479-2.479 0-1.369 1.11-2.479 2.479-2.479 1.37 0 2.48 1.11 2.48 2.479 0 1.369-1.11 2.479-2.48 2.479zM7.55 3.59l.026-.005c.592-.109.592-.958 0-1.068l-.026-.005c-.033-.006-.066-.009-.099-.009l-6.573 0c-.03 0-.06.003-.09.008l-.058.009c-.603.102-.604.968-.002 1.071.031.006.062.008.093.008l6.629 0c.034 0 .067-.003.1-.009zM4.865 2.368l0-.79c0-.395-.321-.716-.716-.716-.396 0-.717.321-.717.716l0 .79"/><path fill="none" stroke="#0f97ff" stroke-linecap="round" stroke-linejoin="round" stroke-miterlimit="2.613" stroke-width=".698" d="M18.8 21.39l-3.095 4.157c-0.128,0.172 -0.313,0.264 -0.527,0.264 -0.215,0 -0.4,-0.092 -0.528,-0.264l-3.095 -4.157"/><line x1="15.178" x2="15.178" y1="25.811" y2="14.038" fill="none" stroke="#0f97ff" stroke-linecap="round" stroke-linejoin="round" stroke-miterlimit="2.613" stroke-width=".698"/></svg>