<?xml version="1.0" encoding="UTF-8"?>
<svg xmlns="http://www.w3.org/2000/svg" xmlns:xlink="http://www.w3.org/1999/xlink" width="72px" height="72px" viewBox="0 0 72 72" version="1.1">
<g id="surface1">
<path style=" stroke:none;fill-rule:nonzero;fill:rgb(0%,0%,0%);fill-opacity:1;" d="M 65.398438 16.050781 C 65.25 15.898438 65.25 15.75 65.101562 15.601562 L 49.949219 0.449219 C 49.800781 0.300781 49.648438 0.148438 49.5 0.148438 C 49.199219 0 49.050781 0 48.898438 0 L 12.449219 0 C 9.148438 0 6.449219 2.699219 6.449219 6 L 6.449219 66 C 6.449219 69.300781 9.148438 72 12.449219 72 L 59.550781 72 C 62.851562 72 65.550781 69.300781 65.550781 66 L 65.550781 16.648438 C 65.550781 16.351562 65.550781 16.199219 65.398438 16.050781 Z M 50.398438 5.101562 L 60.449219 15.148438 L 53.398438 15.148438 C 51.75 15.148438 50.398438 13.800781 50.398438 12.148438 Z M 62.550781 66 C 62.550781 67.648438 61.199219 69 59.550781 69 L 12.449219 69 C 10.800781 69 9.449219 67.648438 9.449219 66 L 9.449219 6 C 9.449219 4.351562 10.800781 3 12.449219 3 L 47.398438 3 L 47.398438 12.148438 C 47.398438 15.449219 50.101562 18.148438 53.398438 18.148438 L 62.550781 18.148438 Z M 62.550781 66 "/>
<path style=" stroke:none;fill-rule:nonzero;fill:rgb(0%,0%,0%);fill-opacity:1;" d="M 16.5 12 L 42 12 C 42.898438 12 43.5 11.398438 43.5 10.5 C 43.5 9.601562 42.898438 9 42 9 L 16.5 9 C 15.601562 9 15 9.601562 15 10.5 C 15 11.398438 15.75 12 16.5 12 Z M 43.5 20.699219 C 43.5 19.800781 42.898438 19.199219 42 19.199219 L 16.5 19.199219 C 15.601562 19.199219 15 19.800781 15 20.699219 C 15 21.601562 15.601562 22.199219 16.5 22.199219 L 42 22.199219 C 42.898438 22.199219 43.5 21.449219 43.5 20.699219 Z M 51.300781 42 C 51 40.648438 50.398438 39.449219 49.648438 38.25 L 50.550781 36.898438 C 51 36.300781 50.851562 35.550781 50.398438 34.949219 L 47.851562 32.398438 C 47.398438 31.949219 46.5 31.800781 45.898438 32.25 L 44.398438 33.148438 C 43.199219 32.398438 42 31.949219 40.648438 31.648438 L 40.351562 30 C 40.199219 29.25 39.601562 28.800781 38.851562 28.800781 L 35.25 28.800781 C 34.5 28.800781 33.898438 29.25 33.75 30 L 33.449219 31.5 C 32.101562 31.800781 30.898438 32.398438 29.699219 33 L 28.199219 32.101562 C 27.601562 31.648438 26.851562 31.800781 26.25 32.25 L 23.699219 34.800781 C 23.25 35.25 23.101562 36.148438 23.550781 36.75 L 24.449219 38.101562 C 23.699219 39.300781 23.25 40.5 22.800781 41.851562 L 21.148438 42.148438 C 20.398438 42.300781 19.949219 42.898438 19.949219 43.648438 L 19.949219 47.25 C 19.949219 48 20.398438 48.601562 21.148438 48.75 L 22.648438 49.050781 C 22.949219 50.398438 23.550781 51.75 24.300781 52.949219 L 23.398438 54.300781 C 22.949219 54.898438 23.101562 55.648438 23.550781 56.25 L 26.101562 58.800781 C 26.550781 59.25 27.449219 59.398438 28.050781 58.949219 L 29.398438 58.050781 C 30.601562 58.800781 31.949219 59.398438 33.300781 59.699219 L 33.601562 61.199219 C 33.75 61.949219 34.351562 62.398438 35.101562 62.398438 L 39 62.398438 C 39.75 62.398438 40.351562 61.949219 40.5 61.199219 L 40.800781 59.699219 C 42.148438 59.398438 43.5 58.800781 44.699219 58.050781 L 46.050781 58.949219 C 46.648438 59.398438 47.398438 59.25 48 58.800781 L 50.550781 56.25 C 51 55.800781 51.148438 54.898438 50.699219 54.300781 L 49.800781 52.949219 C 50.550781 51.75 51 50.398438 51.449219 49.050781 L 52.949219 48.75 C 53.699219 48.601562 54.148438 48 54.148438 47.25 L 54.148438 43.648438 C 54.148438 42.898438 53.699219 42.300781 52.949219 42.148438 Z M 51 46.199219 L 49.800781 46.5 C 49.199219 46.648438 48.75 47.101562 48.601562 47.699219 C 48.300781 49.351562 47.699219 50.851562 46.800781 52.199219 C 46.5 52.648438 46.5 53.398438 46.800781 53.851562 L 47.550781 54.898438 L 46.5 55.949219 L 45.449219 55.199219 C 45 54.898438 44.25 54.898438 43.800781 55.199219 C 42.449219 56.101562 40.800781 56.851562 39.148438 57.148438 C 38.550781 57.300781 38.101562 57.75 37.949219 58.351562 L 37.648438 59.550781 L 36.449219 59.550781 L 36.148438 58.351562 C 36 57.75 35.550781 57.300781 34.949219 57.148438 C 33.300781 56.851562 31.800781 56.25 30.300781 55.199219 C 29.851562 54.898438 29.101562 54.898438 28.648438 55.199219 L 27.601562 55.949219 L 26.699219 55.050781 L 27.449219 54 C 27.75 53.550781 27.75 52.800781 27.449219 52.351562 C 26.550781 51 25.949219 49.5 25.648438 47.699219 C 25.5 47.101562 25.050781 46.648438 24.449219 46.5 L 23.101562 46.199219 L 23.101562 45 L 24.449219 44.699219 C 25.050781 44.550781 25.5 44.101562 25.648438 43.5 C 25.949219 41.851562 26.550781 40.351562 27.601562 39 C 27.898438 38.550781 27.898438 37.800781 27.601562 37.351562 L 26.851562 36.148438 L 27.75 35.25 L 28.949219 36 C 29.398438 36.300781 30.148438 36.300781 30.601562 36 C 31.949219 35.101562 33.449219 34.5 35.101562 34.199219 C 35.699219 34.050781 36.148438 33.601562 36.300781 33 L 36.601562 31.5 L 37.800781 31.5 L 38.101562 33 C 38.25 33.601562 38.699219 34.050781 39.300781 34.199219 C 40.949219 34.5 42.449219 35.101562 43.800781 36 C 44.25 36.300781 45 36.300781 45.449219 36 L 46.648438 35.25 L 47.550781 36.148438 L 46.800781 37.351562 C 46.5 37.800781 46.5 38.550781 46.800781 39 C 47.699219 40.351562 48.449219 41.851562 48.75 43.5 C 48.898438 44.101562 49.351562 44.550781 49.949219 44.699219 L 51 45 Z M 51 46.199219 "/>
<path style=" stroke:none;fill-rule:nonzero;fill:rgb(0%,0%,0%);fill-opacity:1;" d="M 37.050781 37.050781 C 32.25 37.050781 28.5 40.949219 28.5 45.601562 C 28.5 50.25 32.398438 54.148438 37.050781 54.148438 C 41.851562 54.148438 45.601562 50.25 45.601562 45.601562 C 45.601562 40.949219 41.851562 37.050781 37.050781 37.050781 Z M 37.050781 51.148438 C 33.898438 51.148438 31.5 48.601562 31.5 45.601562 C 31.5 42.601562 34.050781 40.050781 37.050781 40.050781 C 40.050781 40.050781 42.601562 42.601562 42.601562 45.601562 C 42.601562 48.601562 40.199219 51.148438 37.050781 51.148438 Z M 37.050781 51.148438 "/>
</g>
</svg>
