<svg xmlns="http://www.w3.org/2000/svg" width="260" height="260" fill-rule="evenodd" clip-rule="evenodd" image-rendering="optimizeQuality" shape-rendering="geometricPrecision" text-rendering="geometricPrecision" viewBox="0 0 95.438 95.262"><polygon fill="none" points=".82 .733 94.617 .733 94.617 94.53 .82 94.53"/><path fill="none" stroke="#00305d" stroke-linecap="round" stroke-linejoin="round" stroke-miterlimit="2.613" stroke-width="1.466" d="M42.439 50.522l-40.68-.033c-.572 0-1.026-.454-1.026-1.026l0-1.963c0-.47.308-.865.747-.997l21.031-8.515c.894-.249 3.606-1.012 7.607 1.436l7.664 5.467c.162.058.396.132.557.176l3.998.033M45.746 41.564l.039-39.805c0-.572.468-1.026 1.04-1.026l1.964 0c.454 0 .865.308.982.748l8.515 21.03c.264.894 1.011 3.606-1.437 7.607l-5.466 7.664c-.044.162-.118.396-.176.558l-.039 3.444M54.077 44.773l39.588 0c.571 0 1.04.469 1.04 1.027l0 1.963c0 .469-.308.865-.747.997l-21.031 8.515c-.909.249-3.62 1.011-7.606-1.437l-7.68-5.466c-.161-.059-.381-.132-.542-.176l-2.919 0M51.231 53.34l-.039 40.164c0 .571-.469 1.026-1.025 1.026l-1.965 0c-.468 0-.864-.308-.996-.748l-8.515-21.031c-.249-.894-1.011-3.605 1.436-7.606l5.467-7.665c.044-.161.117-.396.176-.557l.038-3.363M48.181 49.677l0 0c-1.13 0-2.046-.916-2.046-2.046 0-1.13.916-2.046 2.046-2.046 1.13 0 2.046.916 2.046 2.046 0 1.13-.916 2.046-2.046 2.046z"/><path fill="none" stroke="#00305d" stroke-linecap="round" stroke-linejoin="round" stroke-miterlimit="2.613" stroke-width="1.466" d="M48.18 41.469c-3.403,0 -6.162,2.759 -6.162,6.162 0,3.404 2.759,6.163 6.162,6.163 3.404,0 6.163,-2.759 6.163,-6.163 0,-3.403 -2.759,-6.162 -6.163,-6.162z"/><path fill="none" stroke="#0f97ff" stroke-linecap="round" stroke-linejoin="round" stroke-miterlimit="2.613" stroke-width="2.198" d="M10.594 30.639c4.263,-11.5 13.09,-19.278 26.481,-23.333l-14.43 -1.549"/><line x1="37.075" x2="28.547" y1="7.306" y2="19.303" fill="none" stroke="#0f97ff" stroke-linecap="round" stroke-linejoin="round" stroke-miterlimit="2.613" stroke-width="2.198"/><path fill="none" stroke="#0f97ff" stroke-linecap="round" stroke-linejoin="round" stroke-miterlimit="2.613" stroke-width="2.198" d="M62.599 7.059c11.814,3.293 20.298,11.443 25.452,24.451l0.345 -14.508"/><line x1="88.051" x2="75.387" y1="31.51" y2="24.008" fill="none" stroke="#0f97ff" stroke-linecap="round" stroke-linejoin="round" stroke-miterlimit="2.613" stroke-width="2.198"/><path fill="none" stroke="#0f97ff" stroke-linecap="round" stroke-linejoin="round" stroke-miterlimit="2.613" stroke-width="2.198" d="M88.486 61.564c-4.263,11.5 -13.09,19.278 -26.48,23.333l14.429 1.549"/><line x1="62.006" x2="70.534" y1="84.897" y2="72.9" fill="none" stroke="#0f97ff" stroke-linecap="round" stroke-linejoin="round" stroke-miterlimit="2.613" stroke-width="2.198"/><g><path fill="none" stroke="#0f97ff" stroke-linecap="round" stroke-linejoin="round" stroke-miterlimit="2.613" stroke-width="2.198" d="M31.293 85.085c-11.5,-4.263 -19.277,-13.09 -23.332,-26.48l-1.55 14.429"/><line x1="7.961" x2="19.957" y1="58.605" y2="67.132" fill="none" stroke="#0f97ff" stroke-linecap="round" stroke-linejoin="round" stroke-miterlimit="2.613" stroke-width="2.198"/></g></svg>