<svg xmlns="http://www.w3.org/2000/svg" viewBox="0 0 24 24"><path d="m1 4c-0.55228475 0-1 0.44771525-1 1s0.44771525 1 1 1h0.5c0.27614238 0 0.5 0.22385762 0.5 0.5v4.5c5.2454e-5 0.55226302 0.44773698 0.99994755 1 1h1c0.55226302-5.245e-5 0.99994755-0.44773698 1-1v-0.5c0-0.27614237 0.22385762-0.5 0.5-0.5h1c0.27614238 0 0.5 0.22385763 0.5 0.5v1.5c0 0.006136 4.3924e-5 0.0122728 1.30505e-4 0.0184112 0.0038855 0.27547434-0.084203 0.65159875-0.27946515 0.8468609l-0.72066536 0.7206654c-0.64001758 0.64001759-1 1.508941-1 2.4140625v3c0 0.55228475 0.44771525 1 1 1s1-0.44771525 1-1v-3c0-0.37545694 0.14857435-0.73451185 0.4140625-1l0.49214973-0.49214973c0.19526215-0.19526215 0.52892068-0.20978403 0.77647099-0.08858706 0.50665087 0.24804876 1.5210085 0.58073679 3.3173168 0.58073679 1.7971484 0 2.8116146-0.33299932 3.3180274-0.5810848 0.24713042-0.1210662 0.58049824-0.10632708 0.77576039 0.0889351l0.49214973 0.4921497c0.26548815 0.26548815 0.4140625 0.62454306 0.4140625 1v3c0 0.55228475 0.44771525 1 1 1s1-0.44771525 1-1v-3c0-0.90512155-0.35998241-1.7740449-1-2.4140625l-0.72066536-0.72066536c-0.19526215-0.19526215-0.28332037-0.57145007-0.27946316-0.84700207 8.527e-5 -0.00609139 1.2852e-4 -0.01218144 1.2852e-4 -0.01827007v-1.5c0-0.27614237 0.22385763-0.5 0.5-0.5h1c0.27614237 0 0.5 0.22385763 0.5 0.5v0.5c5.522e-5 0.55226188 0.44773812 0.99994478 1 1h1c0.55226188-5.522e-5 0.99994478-0.44773812 1-1v-4.5c0-0.27614238 0.22385763-0.5 0.5-0.5h0.5c0.55228475 0 1-0.44771525 1-1s-0.44771525-1-1-1h-5c-0.55228475 0-1 0.44771525-1 1s0.44771525 1 1 1h0.5c0.27614237 0 0.5 0.22385762 0.5 0.5v1c0 0.27614238-0.22385763 0.5-0.5 0.5h-1.28125c-0.27614237 0-0.6107336-0.19901029-0.80338809-0.39591001-0.36265228-0.37064348-0.86373857-0.60408999-1.4153619-0.60408999h-0.47929688c-0.16568542 0-0.38903543-0.10106884-0.51123658-0.21286007-0.53121097-0.48595885-1.2325341-0.78713993-2.0094665-0.78713993-0.77693482 0-1.4782598 0.30118292-2.0094714 0.78714439-0.12219822 0.11178904-0.34554629 0.21285561-0.51123171 0.21285561h-0.47929688c-0.55162695 0-1.0527162 0.23344956-1.415369 0.60409727-0.19264962 0.19689668-0.52723859 0.39590273-0.80338097 0.39590273h-1.28125c-0.27614238 0-0.5-0.22385762-0.5-0.5v-1c0-0.27614238 0.22385762-0.5 0.5-0.5h0.5c0.55228475 0 1-0.44771525 1-1s-0.44771525-1-1-1zm11 5c1.1045695 0 2 0.8954305 2 2s-0.8954305 2-2 2-2-0.8954305-2-2 0.8954305-2 2-2z" paint-order="fill markers stroke" fill="#ffffff" class="color000000 svgShape"></path></svg>