<?xml version="1.0" encoding="UTF-8"?>
<svg xmlns="http://www.w3.org/2000/svg" xmlns:xlink="http://www.w3.org/1999/xlink" width="72px" height="72px" viewBox="0 0 72 72" version="1.1">
<g id="surface1">
<path style=" stroke:none;fill-rule:nonzero;fill:rgb(0%,0%,0%);fill-opacity:1;" d="M 62.605469 16.28125 C 62.605469 12.828125 59.796875 10.019531 56.339844 10.019531 C 52.886719 10.019531 50.078125 12.828125 50.078125 16.28125 C 50.078125 19.738281 52.886719 22.546875 56.339844 22.546875 C 59.796875 22.546875 62.605469 19.738281 62.605469 16.28125 Z M 51.828125 16.28125 C 51.828125 13.792969 53.855469 11.769531 56.339844 11.769531 C 58.828125 11.769531 60.851562 13.792969 60.851562 16.28125 C 60.851562 18.769531 58.828125 20.792969 56.339844 20.792969 C 53.855469 20.792969 51.828125 18.769531 51.828125 16.28125 Z M 14.183594 45.324219 C 10.730469 45.324219 7.921875 48.136719 7.921875 51.589844 C 7.921875 55.042969 10.730469 57.855469 14.183594 57.855469 C 17.640625 57.855469 20.449219 55.042969 20.449219 51.589844 C 20.449219 48.136719 17.640625 45.324219 14.183594 45.324219 Z M 14.183594 56.101562 C 11.695312 56.101562 9.671875 54.078125 9.671875 51.589844 C 9.671875 49.101562 11.695312 47.078125 14.183594 47.078125 C 16.671875 47.078125 18.695312 49.101562 18.695312 51.589844 C 18.695312 54.078125 16.671875 56.101562 14.183594 56.101562 Z M 14.183594 56.101562 "/>
<path style=" stroke:none;fill-rule:nonzero;fill:rgb(0%,0%,0%);fill-opacity:1;" d="M 57.816406 42.644531 C 53.808594 42.644531 50.371094 45 48.722656 48.378906 L 23.648438 48.105469 C 23.375 47.375 23.042969 46.671875 22.613281 46.035156 L 52.777344 29.3125 C 54.304688 31.367188 55.535156 32.839844 55.671875 33 C 55.839844 33.199219 56.082031 33.3125 56.339844 33.3125 C 56.601562 33.3125 56.84375 33.199219 57.011719 33 C 57.398438 32.542969 66.480469 21.722656 66.480469 16.347656 C 66.480469 10.757812 61.933594 6.207031 56.339844 6.207031 C 50.75 6.207031 46.203125 10.757812 46.203125 16.347656 C 46.203125 16.480469 46.230469 16.628906 46.242188 16.769531 L 29.480469 13.980469 C 29.617188 13.417969 29.710938 12.875 29.710938 12.390625 C 29.710938 6.800781 25.164062 2.25 19.574219 2.25 C 13.980469 2.25 9.433594 6.800781 9.433594 12.390625 C 9.433594 17.765625 18.515625 28.585938 18.902344 29.042969 C 19.070312 29.238281 19.316406 29.355469 19.574219 29.355469 C 19.832031 29.355469 20.078125 29.238281 20.242188 29.042969 C 20.492188 28.746094 24.320312 24.179688 27.03125 19.523438 L 48.679688 23.125 C 48.933594 23.570312 49.191406 24.011719 49.460938 24.449219 L 17.667969 42.167969 C 16.578125 41.765625 15.414062 41.515625 14.183594 41.515625 C 8.59375 41.515625 4.046875 46.0625 4.046875 51.65625 C 4.046875 57.03125 13.128906 67.847656 13.515625 68.304688 C 13.683594 68.503906 13.925781 68.617188 14.183594 68.617188 C 14.441406 68.617188 14.6875 68.503906 14.855469 68.308594 C 15.191406 67.910156 22.074219 59.707031 23.886719 54.03125 L 47.863281 54.199219 C 49.105469 59.851562 56.789062 69.019531 57.144531 69.441406 C 57.3125 69.636719 57.558594 69.75 57.816406 69.75 C 58.074219 69.75 58.320312 69.636719 58.484375 69.4375 C 58.871094 68.980469 67.953125 58.160156 67.953125 52.785156 C 67.953125 47.195312 63.40625 42.644531 57.816406 42.644531 Z M 19.574219 27.101562 C 16.730469 23.59375 11.1875 16.007812 11.1875 12.390625 C 11.1875 7.765625 14.949219 4.003906 19.574219 4.003906 C 24.195312 4.003906 27.960938 7.765625 27.960938 12.390625 C 27.960938 16.007812 22.417969 23.59375 19.574219 27.101562 Z M 27.925781 17.898438 C 28.316406 17.136719 28.667969 16.390625 28.949219 15.667969 L 46.601562 18.605469 C 46.851562 19.417969 47.210938 20.285156 47.640625 21.175781 Z M 47.957031 16.347656 C 47.957031 11.722656 51.71875 7.960938 56.339844 7.960938 C 60.964844 7.960938 64.730469 11.722656 64.730469 16.347656 C 64.730469 19.96875 59.1875 27.550781 56.339844 31.058594 C 53.496094 27.550781 47.957031 19.96875 47.957031 16.347656 Z M 50.40625 25.929688 C 50.839844 26.589844 51.285156 27.238281 51.738281 27.882812 L 21.488281 44.65625 C 20.921875 44.0625 20.285156 43.546875 19.589844 43.105469 Z M 14.183594 66.367188 C 11.339844 62.859375 5.796875 55.277344 5.796875 51.65625 C 5.796875 47.03125 9.5625 43.265625 14.183594 43.265625 C 18.808594 43.265625 22.574219 47.03125 22.574219 51.65625 C 22.574219 55.273438 17.03125 62.855469 14.183594 66.367188 Z M 47.710938 52.445312 L 24.265625 52.28125 C 24.289062 52.070312 24.324219 51.851562 24.324219 51.65625 C 24.324219 51.042969 24.25 50.449219 24.144531 49.863281 L 48.074219 50.125 C 47.871094 50.871094 47.738281 51.640625 47.710938 52.445312 Z M 57.816406 67.496094 C 54.96875 63.988281 49.425781 56.40625 49.425781 52.785156 C 49.425781 48.160156 53.191406 44.398438 57.816406 44.398438 C 62.4375 44.398438 66.203125 48.160156 66.203125 52.785156 C 66.203125 56.40625 60.660156 63.988281 57.816406 67.496094 Z M 57.816406 67.496094 "/>
<path style=" stroke:none;fill-rule:nonzero;fill:rgb(0%,0%,0%);fill-opacity:1;" d="M 57.816406 46.457031 C 54.359375 46.457031 51.550781 49.265625 51.550781 52.722656 C 51.550781 56.175781 54.359375 58.984375 57.816406 58.984375 C 61.269531 58.984375 64.078125 56.175781 64.078125 52.722656 C 64.078125 49.265625 61.269531 46.457031 57.816406 46.457031 Z M 57.816406 57.234375 C 55.328125 57.234375 53.304688 55.210938 53.304688 52.722656 C 53.304688 50.234375 55.328125 48.210938 57.816406 48.210938 C 60.304688 48.210938 62.328125 50.234375 62.328125 52.722656 C 62.328125 55.210938 60.304688 57.234375 57.816406 57.234375 Z M 19.574219 6.0625 C 16.117188 6.0625 13.308594 8.871094 13.308594 12.324219 C 13.308594 15.777344 16.117188 18.589844 19.574219 18.589844 C 23.027344 18.589844 25.835938 15.777344 25.835938 12.324219 C 25.835938 8.871094 23.027344 6.0625 19.574219 6.0625 Z M 19.574219 16.835938 C 17.085938 16.835938 15.0625 14.8125 15.0625 12.324219 C 15.0625 9.835938 17.085938 7.8125 19.574219 7.8125 C 22.0625 7.8125 24.085938 9.835938 24.085938 12.324219 C 24.085938 14.8125 22.0625 16.835938 19.574219 16.835938 Z M 19.574219 16.835938 "/>
</g>
</svg>
