<?xml version="1.0" encoding="UTF-8"?>
<svg xmlns="http://www.w3.org/2000/svg" xmlns:xlink="http://www.w3.org/1999/xlink" width="72px" height="72px" viewBox="0 0 72 72" version="1.1">
<g id="surface1">
<path style=" stroke:none;fill-rule:nonzero;fill:rgb(0%,0%,0%);fill-opacity:1;" d="M 36 55.5 C 35.644531 55.5 35.304688 55.375 35.035156 55.144531 C 34.460938 54.664062 21 43.183594 21 31.5 C 21 23.230469 27.730469 16.5 36 16.5 C 44.269531 16.5 51 23.230469 51 31.5 C 51 43.183594 37.539062 54.664062 36.964844 55.144531 C 36.695312 55.375 36.355469 55.5 36 55.5 Z M 36 19.5 C 29.382812 19.5 24 24.882812 24 31.5 C 24 40.105469 32.992188 49.183594 36 51.984375 C 39.007812 49.183594 48 40.105469 48 31.5 C 48 24.882812 42.617188 19.5 36 19.5 Z M 36 19.5 "/>
<path style=" stroke:none;fill-rule:nonzero;fill:rgb(0%,0%,0%);fill-opacity:1;" d="M 36 37.5 C 32.691406 37.5 30 34.808594 30 31.5 C 30 28.191406 32.691406 25.5 36 25.5 C 39.308594 25.5 42 28.191406 42 31.5 C 42 34.808594 39.308594 37.5 36 37.5 Z M 36 28.5 C 34.347656 28.5 33 29.847656 33 31.5 C 33 33.152344 34.347656 34.5 36 34.5 C 37.652344 34.5 39 33.152344 39 31.5 C 39 29.847656 37.652344 28.5 36 28.5 Z M 36 28.5 "/>
<path style=" stroke:none;fill-rule:nonzero;fill:rgb(0%,0%,0%);fill-opacity:1;" d="M 36 66 C 19.457031 66 6 52.542969 6 36 C 6 19.457031 19.457031 6 36 6 C 52.542969 6 66 19.457031 66 36 C 66 52.542969 52.542969 66 36 66 Z M 36 9 C 21.113281 9 9 21.113281 9 36 C 9 50.886719 21.113281 63 36 63 C 50.886719 63 63 50.886719 63 36 C 63 21.113281 50.886719 9 36 9 Z M 36 9 "/>
<path style=" stroke:none;fill-rule:nonzero;fill:rgb(0%,0%,0%);fill-opacity:1;" d="M 36 12 C 35.171875 12 34.5 11.328125 34.5 10.5 L 34.5 1.5 C 34.5 0.671875 35.171875 0 36 0 C 36.828125 0 37.5 0.671875 37.5 1.5 L 37.5 10.5 C 37.5 11.328125 36.828125 12 36 12 Z M 36 72 C 35.171875 72 34.5 71.328125 34.5 70.5 L 34.5 61.5 C 34.5 60.671875 35.171875 60 36 60 C 36.828125 60 37.5 60.671875 37.5 61.5 L 37.5 70.5 C 37.5 71.328125 36.828125 72 36 72 Z M 70.5 37.5 L 61.5 37.5 C 60.671875 37.5 60 36.828125 60 36 C 60 35.171875 60.671875 34.5 61.5 34.5 L 70.5 34.5 C 71.328125 34.5 72 35.171875 72 36 C 72 36.828125 71.328125 37.5 70.5 37.5 Z M 10.5 37.5 L 1.5 37.5 C 0.671875 37.5 0 36.828125 0 36 C 0 35.171875 0.671875 34.5 1.5 34.5 L 10.5 34.5 C 11.328125 34.5 12 35.171875 12 36 C 12 36.828125 11.328125 37.5 10.5 37.5 Z M 10.5 37.5 "/>
</g>
</svg>
