<svg xmlns="http://www.w3.org/2000/svg" viewBox="0 0 128 128"><g data-name="Outline"><path d="M128,4.53a1.5,1.5,0,0,0-1.5-1.5h-5.622a4.882,4.882,0,0,0-8.556,0H106.7a1.5,1.5,0,1,0,0,3h4.717A3.3,3.3,0,0,0,110,8.733V11.3C98.323,7,79.676,7,68,11.3V8.733a3.3,3.3,0,0,0-1.417-2.7H71.3a1.5,1.5,0,0,0,0-3H65.678a4.882,4.882,0,0,0-8.556,0H51.5a1.5,1.5,0,1,0,0,3h4.717a3.3,3.3,0,0,0-1.417,2.7V17.15q-1.062.566-2.147,1.163A5.114,5.114,0,0,0,50,22.788V25.62a5.138,5.138,0,0,0,4.869,5.094c.763.044,1.528.131,2.287.251L33.866,41.04a2.806,2.806,0,0,1-2.235,0L8.136,30.879A5.857,5.857,0,0,0,0,36.217v73.961a5.827,5.827,0,0,0,3.515,5.349l26.922,11.651a5.814,5.814,0,0,0,4.623,0l27.824-12.037a2.8,2.8,0,0,1,2.234,0l27.818,12.034a5.825,5.825,0,0,0,4.624,0l26.925-11.654A5.824,5.824,0,0,0,128,110.178V36.217a5.813,5.813,0,0,0-4.26-5.6,5.113,5.113,0,0,0,4.26-5V22.788a5.116,5.116,0,0,0-2.654-4.476q-1.086-.6-2.146-1.162V8.733a3.3,3.3,0,0,0-1.417-2.7H126.5A1.5,1.5,0,0,0,128,4.53ZM3,80.751,16.425,92.31,3,102.432Zm28,43.4-16.948-7.334L31,105.06Zm0-22.742L10.811,115.416l-6.1-2.642A2.828,2.828,0,0,1,3,110.178v-3.989l16.717-12.6a1.51,1.51,0,0,0,.075-2.334L3,76.792V61.51L31,85.777Zm0-19.6L3,57.539V36.217a2.832,2.832,0,0,1,3.943-2.585l23.495,10.16A5.763,5.763,0,0,0,31,44ZM116.6,3.5a2.176,2.176,0,0,1,2.028,1.934h-4.056A2.176,2.176,0,0,1,116.6,3.5ZM113,8.733a.3.3,0,0,1,.3-.3h6.6a.3.3,0,0,1,.3.3v1.41H113Zm7.2,4.41v2.463c-1.792-.9-3.555-1.721-5.316-2.463ZM89,10.989a76.135,76.135,0,0,1,9.881.754l-1.3,1.65a1.11,1.11,0,0,1-.882.44H81.3a1.129,1.129,0,0,1-.9-.469l-1.278-1.621A76.148,76.148,0,0,1,89,10.989ZM61.4,3.5a2.176,2.176,0,0,1,2.028,1.934H59.372A2.176,2.176,0,0,1,61.4,3.5ZM57.8,8.733a.3.3,0,0,1,.3-.3h6.6a.3.3,0,0,1,.3.3v1.41H57.8Zm0,4.41h5.317c-1.761.742-3.525,1.567-5.317,2.463ZM34,44.132a5.811,5.811,0,0,0,1.06-.339l26.816-11.6c.211.077.417.16.624.242v3.255a88.616,88.616,0,0,0-5.691,26.9,4.273,4.273,0,0,0,.665,2.612L34,82.159Zm28.5,67.983a5.766,5.766,0,0,0-.81.275L34,124.369v-21.39L62.5,83.208Zm0-32.558L34,99.328V85.859L59.975,67.1A4.094,4.094,0,0,0,62.5,67.07ZM62.6,62.974a1.4,1.4,0,0,1-1.429,1.312A1.442,1.442,0,0,1,59.8,62.793a86.053,86.053,0,0,1,6.47-28.451,17.094,17.094,0,0,1,2.3,1.747A83.33,83.33,0,0,0,62.6,62.974ZM94,124.369,66.312,112.391a5.665,5.665,0,0,0-.812-.275v-28.9L94,103.124Zm0-24.9L65.5,79.56V65.275L94,85.859Zm0-17.307L65.7,61.716A80.118,80.118,0,0,1,70.772,38.7c2.69,4.169,5.713,5.885,10.365,5.885,3.485-.012,8.69-.015,12.863-.007ZM81.135,41.582c-3.7,0-5.785-1.234-7.966-4.7-.095-.152-.207-.3-.31-.447a18.535,18.535,0,0,0,2.023-2.47,2.121,2.121,0,0,1,1.746-.934h24.744a2.122,2.122,0,0,1,1.746.933,18.473,18.473,0,0,0,2.023,2.471c-.1.149-.215.3-.31.447-2.188,3.483-4.309,4.714-8.025,4.7C92.487,41.568,85.454,41.568,81.135,41.582ZM118.2,62.827a1.426,1.426,0,0,1-1.4,1.458,1.392,1.392,0,0,1-1.392-1.31,83.28,83.28,0,0,0-5.975-26.886,17.169,17.169,0,0,1,2.3-1.747A86.112,86.112,0,0,1,118.2,62.827Zm-3.816-29.916a24.861,24.861,0,0,1,4.2-1.478L114.5,33.2C114.462,33.1,114.424,33.007,114.384,32.911Zm-2.437,25.023L97,80.172V44.579c4.573-.034,7.565-1.756,10.228-5.882A80.084,80.084,0,0,1,111.947,57.934ZM125,110.178a2.826,2.826,0,0,1-1.707,2.595L97,124.152V104.12l28,4.781Zm0-17.565-16.312-3.257L125,65.111Zm0-32.876L104.942,89.55a1.509,1.509,0,0,0,.951,2.307L125,95.671v10.187l-28-4.782V85.549l15.375-22.873c.009.155.026.307.034.462a4.428,4.428,0,0,0,4.353,4.147,4.491,4.491,0,0,0,4.431-4.654,90.06,90.06,0,0,0-1.3-11.132L125,43.894Zm0-23.52v2.3l-5.954,8.858a89.771,89.771,0,0,0-3.439-11.384l5.453-2.358A2.832,2.832,0,0,1,125,36.217Zm-2.042-8.5c-6.086.35-12.107,2.868-15.849,6.429a15.642,15.642,0,0,1-1.516-1.879,5.122,5.122,0,0,0-4.221-2.237H76.628a5.121,5.121,0,0,0-4.221,2.238,15.74,15.74,0,0,1-1.516,1.878c-3.742-3.561-9.763-6.079-15.849-6.429a2.14,2.14,0,0,1-2.021-1.888c16.036-4.227,55.922-4.227,71.958,0A2.14,2.14,0,0,1,122.958,27.72Zm.941-6.781a2.115,2.115,0,0,1,1.095,1.8c-16.626-4.049-55.362-4.049-71.988,0a2.113,2.113,0,0,1,1.094-1.8c7.522-4.139,13.98-7.038,21.667-8.6l2.253,2.857a4.122,4.122,0,0,0,3.281,1.64H96.7a4.108,4.108,0,0,0,3.26-1.611l2.274-2.886C109.92,13.9,116.378,16.8,123.9,20.939Z"/><path d="M20 45.842a5.5 5.5 0 00-1.5 10.787V59.34a1.5 1.5 0 003 0V56.629A5.5 5.5 0 0020 45.842zm.01 8h-.02a2.5 2.5 0 11.02 0zM74.5 104.629v2.711a1.5 1.5 0 003 0v-2.711a5.5 5.5 0 10-3 0zM76 96.842a2.5 2.5 0 01.01 5h-.02a2.5 2.5 0 01.01-5z"/></g></svg>