<?xml version="1.0" encoding="UTF-8"?>
<svg xmlns="http://www.w3.org/2000/svg" xmlns:xlink="http://www.w3.org/1999/xlink" width="72px" height="72px" viewBox="0 0 72 72" version="1.1">
<g id="surface1">
<path style=" stroke:none;fill-rule:nonzero;fill:rgb(100%,100%,100%);fill-opacity:1;" d="M 36 39 C 35.464844 39 34.945312 38.808594 34.539062 38.460938 C 33.984375 37.984375 21 26.746094 21 15.1875 C 21 6.8125 27.730469 0 36 0 C 44.269531 0 51 6.8125 51 15.1875 C 51 26.746094 38.015625 37.988281 37.460938 38.460938 C 37.054688 38.808594 36.535156 39 36 39 Z M 36 4.5 C 30.210938 4.5 25.5 9.292969 25.5 15.1875 C 25.5 22.636719 32.808594 30.566406 36 33.679688 C 39.191406 30.570312 46.5 22.636719 46.5 15.1875 C 46.5 9.292969 41.789062 4.5 36 4.5 Z M 36 4.5 "/>
<path style=" stroke:none;fill-rule:nonzero;fill:rgb(100%,100%,100%);fill-opacity:1;" d="M 36 21 C 32.691406 21 30 18.308594 30 15 C 30 11.691406 32.691406 9 36 9 C 39.308594 9 42 11.691406 42 15 C 42 18.308594 39.308594 21 36 21 Z M 36 13.5 C 35.167969 13.5 34.5 14.175781 34.5 15.007812 C 34.5 15.835938 35.175781 16.507812 36.007812 16.507812 C 36.835938 16.503906 37.507812 15.832031 37.507812 15 C 37.503906 14.167969 36.832031 13.5 36 13.5 Z M 36 13.5 "/>
<path style=" stroke:none;fill-rule:nonzero;fill:rgb(100%,100%,100%);fill-opacity:1;" d="M 63.121094 72 L 8.878906 72 C 6.546875 71.996094 4.328125 71.007812 2.761719 69.277344 C 1.199219 67.550781 0.441406 65.238281 0.671875 62.917969 L 5.472656 15.675781 C 5.878906 11.449219 9.4375 8.230469 13.679688 8.25 C 14.921875 8.25 15.929688 9.257812 15.929688 10.5 C 15.929688 11.742188 14.921875 12.75 13.679688 12.75 C 11.742188 12.75 10.136719 14.195312 9.949219 16.117188 L 5.148438 63.382812 C 5.039062 64.441406 5.375 65.464844 6.09375 66.261719 C 6.816406 67.058594 7.804688 67.5 8.878906 67.5 L 63.121094 67.5 C 64.195312 67.5 65.183594 67.058594 65.90625 66.261719 C 66.625 65.464844 66.964844 64.441406 66.851562 63.378906 L 62.050781 16.125 C 61.871094 14.203125 60.25 12.738281 58.320312 12.75 C 57.078125 12.75 56.070312 11.742188 56.070312 10.5 C 56.070312 9.257812 57.078125 8.25 58.320312 8.25 C 62.566406 8.230469 66.125 11.453125 66.523438 15.679688 L 71.328125 62.917969 C 71.5625 65.238281 70.804688 67.546875 69.246094 69.277344 C 67.679688 71.007812 65.453125 71.996094 63.121094 72 Z M 63.121094 72 "/>
<path style=" stroke:none;fill-rule:nonzero;fill:rgb(100%,100%,100%);fill-opacity:1;" d="M 6 43.53125 C 4.757812 43.53125 3.75 42.523438 3.75 41.28125 C 3.746094 40.039062 4.753906 39.03125 5.996094 39.03125 L 26.097656 39 L 26.101562 39 C 27.34375 39 28.351562 40.003906 28.351562 41.25 C 28.351562 42.492188 27.34375 43.5 26.101562 43.5 Z M 28.351562 70.453125 L 24.652344 67.890625 L 44.050781 39.96875 C 44.472656 39.363281 45.160156 39 45.898438 39 L 65.996094 38.96875 L 66.003906 43.46875 L 47.074219 43.5 Z M 28.351562 70.453125 "/>
</g>
</svg>
